<svg width="48" height="48" viewBox="0 0 48 48" fill="none" xmlns="http://www.w3.org/2000/svg">
<path fill-rule="evenodd" clip-rule="evenodd" d="M4.75 9.55815C4.75 8.35141 4.75 7.74804 4.98399 7.2624C5.1902 6.83442 5.52184 6.47168 5.9394 6.2174C6.41322 5.92885 7.04316 5.8432 8.30305 5.67191L26.2714 3.2289C27.9024 3.00715 28.7178 2.89627 29.3516 3.13038C29.9079 3.33588 30.3721 3.71743 30.6656 4.21036C31 4.77188 31 5.55297 31 7.11515V40.8849C31 42.447 31 43.2281 30.6656 43.7897C30.3721 44.2826 29.9079 44.6641 29.3516 44.8696C28.7178 45.1037 27.9024 44.9929 26.2714 44.7711L8.30305 42.3281H8.30302C7.04315 42.1568 6.41322 42.0712 5.9394 41.7826C5.52184 41.5283 5.1902 41.1656 4.98399 40.7376C4.75 40.252 4.75 39.6486 4.75 38.4419V9.55815ZM24 20.9444C24 20.5769 24 20.3932 24.0617 20.2479C24.1161 20.12 24.2032 20.0132 24.3121 19.941C24.4357 19.859 24.5991 19.8424 24.926 19.8091H24.926L26.3896 19.6602C26.7748 19.621 26.9673 19.6014 27.116 19.6733C27.2466 19.7364 27.3546 19.8468 27.4226 19.9867C27.5 20.146 27.5 20.3625 27.5 20.7954V27.2046C27.5 27.6376 27.5 27.854 27.4226 28.0133C27.3546 28.1532 27.2466 28.2636 27.116 28.3268C26.9673 28.3987 26.7748 28.3791 26.3896 28.3399L24.926 28.1909H24.926C24.5991 28.1576 24.4357 28.141 24.3121 28.059C24.2032 27.9869 24.1161 27.88 24.0617 27.7521C24 27.6069 24 27.4231 24 27.0556V20.9444ZM35.9389 7.375H33.625V41.5H35.9389C37.2729 41.5 37.9399 41.5 38.4494 41.2397C38.8976 41.0106 39.262 40.6452 39.4904 40.1957C39.75 39.6847 39.75 39.0158 39.75 37.678V11.197C39.75 9.85918 39.75 9.19026 39.4904 8.67928C39.262 8.22981 38.8976 7.86438 38.4494 7.63536C37.9399 7.375 37.2729 7.375 35.9389 7.375Z" fill="url(#paint0_linear_2115_5292)"/>
<defs>
<linearGradient id="paint0_linear_2115_5292" x1="-6.08334" y1="32.0459" x2="37.0284" y2="14.422" gradientUnits="userSpaceOnUse">
<stop stop-color="#6139f6"/>
<stop offset="1" stop-color="#6139f6"/>
</linearGradient>
</defs>
</svg>
