<svg width="100" height="50">
  <!-- L -->
  <path d="M0 0 h6.2 v6.2 h-6.2 v-6.2 Z M0 6.2 h6.2 v6.2 h-6.2 v-6.2 Z M0 12.4 h6.2 v6.2 h-6.2 v-6.2 Z M0 18.6 h6.2 v6.2 h-6.2 v-6.2 Z M0 24.8 h6.2 v6.2 h-6.2 v-6.2 Z M0 31 h6.2 v6.2 h-6.2 v-6.2 Z M0 37.2 h6.2 v6.2 h-6.2 v-6.2 Z M6.2 37.2 h6.2 v6.2 h-6.2 v-6.2 Z M12.4 37.2 h6.2 v6.2 h-6.2 v-6.2 Z M18.6 37.2 h6.2 v6.2 h-6.2 v-6.2 Z M24.8 37.2 h6.2 v6.2 h-6.2 v-6.2 Z"/>
  <!-- A 左边 -->
  <path d="M37.2 0 h6.2 v6.2 h-6.2 v-6.2 Z M37.2 6.2 h6.2 v6.2 h-6.2 v-6.2 Z M37.2 12.4 h6.2 v6.2 h-6.2 v-6.2 Z M43.4 18.6 h6.2 v6.2 h-6.2 v-6.2 Z M43.4 24.8 h6.2 v6.2 h-6.2 v-6.2 Z M49.6 31 h6.2 v6.2 h-6.2 v-6.2 Z M49.6 37.2 h6.2 v6.2 h-6.2 v-6.2 Z"/>
</svg>
